<svg width="32" height="32" viewBox="0 0 32 32" fill="none" xmlns="http://www.w3.org/2000/svg">
<path d="M16.001 0.00012207C7.16285 0.00012207 0 7.16297 0 16.0011C0 24.8373 7.16285 32.0001 16.001 32.0001C24.8372 32.0001 32 24.8373 32 16.0011C32 7.16297 24.8372 0.00012207 16.001 0.00012207ZM22.104 8.14753L19.8918 8.14917C18.1559 8.14917 17.82 8.97415 17.82 10.1842V12.8518H21.9583L21.9567 17.0319H17.82V27.7545H13.504V17.0303H9.89639V12.8518H13.504V9.77007C13.504 6.19437 15.6892 4.2457 18.8798 4.2457L22.1057 4.25061V8.14753H22.104Z" fill="#00BFF3"/>
</svg>
