<svg width="32" height="32" viewBox="0 0 32 32" fill="none" xmlns="http://www.w3.org/2000/svg">
<path d="M16.6067 11.0234C16.6067 8.80464 15.2849 5.35498 12.7351 5.35498C11.9343 5.35498 11.0758 5.756 10.5819 6.37146C10.0593 7.02047 9.90747 7.84872 9.90747 8.65282C9.90747 10.7148 11.1048 14.1322 13.7504 14.1322C14.5177 14.1322 15.3439 13.7647 15.8394 13.2724C16.5461 12.5608 16.6067 11.5779 16.6067 11.0234Z" fill="#00BFF3"/>
<path d="M14.9474 19.1232C14.7014 19.0929 14.548 19.0929 14.2411 19.0929C13.9644 19.0929 12.3035 19.1535 11.0136 19.5868C10.3376 19.8332 8.37134 20.5714 8.37134 22.7582C8.37134 24.9467 10.4927 26.518 13.7807 26.518C16.7315 26.518 18.2996 25.0985 18.2996 23.1916C18.2996 21.6165 17.2844 20.787 14.9474 19.1232Z" fill="#00BFF3"/>
<path d="M16.001 0.00012207C7.16285 0.00012207 0 7.16297 0 16.0011C0 24.8373 7.16285 32.0001 16.001 32.0001C24.8371 32.0001 32 24.8373 32 16.0011C32 7.16297 24.8371 0.00012207 16.001 0.00012207ZM12.2731 27.809C7.81514 27.809 5.66513 25.6847 5.66513 23.4034C5.66513 22.2956 6.21798 20.7259 8.03079 19.6468C9.93609 18.4769 12.5194 18.3234 13.9022 18.2273C13.4704 17.674 12.9814 17.0892 12.9814 16.1349C12.9814 15.612 13.1349 15.3034 13.2867 14.9343C12.9479 14.9646 12.6119 14.9953 12.3034 14.9953C9.04728 14.9953 7.20295 12.5605 7.20295 10.158C7.20295 8.74335 7.84706 7.17198 9.16881 6.03232C10.9223 4.58412 13.317 4.19086 14.978 4.19086H21.0327L19.0345 5.44755H17.1309C17.8376 6.03231 19.3111 7.26323 19.3111 9.60515C19.3111 11.8828 18.0213 12.9636 16.7311 13.98C16.3296 14.3798 15.8693 14.8095 15.8693 15.4892C15.8693 16.1652 16.3296 16.5343 16.6672 16.8142L17.775 17.6744C19.1274 18.8141 20.3567 19.8612 20.3567 21.9887C20.3567 24.8839 17.5577 27.809 12.2731 27.809ZM25.5357 15.6238V18.7232H24.0155V15.6238H20.9398V14.086H24.0155V11.0071H25.5357V14.086H28.6273V15.6238H25.5357Z" fill="#00BFF3"/>
</svg>
