<svg width="33" height="32" viewBox="0 0 33 32" fill="none" xmlns="http://www.w3.org/2000/svg">
<path fill-rule="evenodd" clip-rule="evenodd" d="M21.3339 15.95C21.3339 18.4835 19.1554 20.5373 16.4676 20.5373C13.7802 20.5373 11.6 18.4831 11.6 15.95C11.6 13.4146 13.7802 11.3607 16.4676 11.3607C19.1554 11.3607 21.3339 13.4146 21.3339 15.95Z" fill="#00BFF3"/>
<path fill-rule="evenodd" clip-rule="evenodd" d="M23.9998 16.2057C23.9998 20.128 20.6269 23.3076 16.4671 23.3076C12.3061 23.3076 8.93314 20.128 8.93314 16.2057C8.93314 15.5023 9.04333 14.823 9.2452 14.1818H7.01917V24.1436C7.01917 24.6584 7.45319 25.0803 7.98183 25.0803H24.8586C25.3876 25.0803 25.8212 24.6584 25.8212 24.1436V14.1818H23.689C23.89 14.823 23.9998 15.5023 23.9998 16.2057Z" fill="#00BFF3"/>
<path fill-rule="evenodd" clip-rule="evenodd" d="M21.9811 11.4948H24.7198C25.3212 11.4948 25.8107 11.0169 25.8107 10.4333V7.8917C25.8107 7.30652 25.3212 6.8302 24.7198 6.8302H21.9811C21.3797 6.8302 20.8901 7.30652 20.8901 7.8917V10.4333C20.8901 11.0169 21.3797 11.4948 21.9811 11.4948Z" fill="#00BFF3"/>
<path fill-rule="evenodd" clip-rule="evenodd" d="M16.4448 0.00012207C7.36152 0.00012207 0 7.16297 0 16.0011C0 24.8373 7.36152 32.0001 16.4448 32.0001C25.526 32.0001 32.8876 24.8373 32.8876 16.0011C32.8876 7.16297 25.526 0.00012207 16.4448 0.00012207ZM25.4507 27.7897H7.43722C5.72511 27.7897 4.32717 26.5588 4.32717 24.7636V7.23622C4.32717 5.44264 5.72511 4.2101 7.43722 4.2101H25.4507C27.1624 4.2101 28.5608 5.44264 28.5608 7.23622V24.7636C28.5604 26.5588 27.1624 27.7897 25.4507 27.7897Z" fill="#00BFF3"/>
</svg>
