<svg width="32" height="32" viewBox="0 0 32 32" fill="none" xmlns="http://www.w3.org/2000/svg">
<path d="M16.6067 11.0233C16.6067 8.80451 15.2849 5.35486 12.7351 5.35486C11.9343 5.35486 11.0758 5.75588 10.5819 6.37133C10.0593 7.02034 9.90747 7.84859 9.90747 8.6527C9.90747 10.7147 11.1048 14.132 13.7504 14.132C14.5177 14.132 15.3439 13.7646 15.8394 13.2723C16.5461 12.5607 16.6067 11.5777 16.6067 11.0233Z" fill="white"/>
<path d="M14.9474 19.1231C14.7014 19.0928 14.548 19.0928 14.2411 19.0928C13.9644 19.0928 12.3035 19.1533 11.0136 19.5867C10.3376 19.833 8.37134 20.5713 8.37134 22.7581C8.37134 24.9466 10.4927 26.5179 13.7807 26.5179C16.7315 26.5179 18.2996 25.0984 18.2996 23.1914C18.2996 21.6164 17.2844 20.7869 14.9474 19.1231Z" fill="white"/>
<path d="M16.001 0C7.16285 0 0 7.16285 0 16.001C0 24.8371 7.16285 32 16.001 32C24.8371 32 32 24.8371 32 16.001C32 7.16285 24.8371 0 16.001 0ZM12.2731 27.8088C7.81514 27.8088 5.66513 25.6846 5.66513 23.4033C5.66513 22.2955 6.21798 20.7258 8.03079 19.6467C9.93609 18.4767 12.5194 18.3233 13.9022 18.2271C13.4704 17.6739 12.9814 17.0891 12.9814 16.1348C12.9814 15.6119 13.1349 15.3033 13.2867 14.9342C12.9479 14.9645 12.6119 14.9952 12.3034 14.9952C9.04728 14.9952 7.20295 12.5604 7.20295 10.1579C7.20295 8.74323 7.84706 7.17185 9.16881 6.0322C10.9223 4.584 13.317 4.19074 14.978 4.19074H21.0327L19.0345 5.44743H17.1309C17.8376 6.03219 19.3111 7.2631 19.3111 9.60503C19.3111 11.8827 18.0213 12.9634 16.7311 13.9799C16.3296 14.3797 15.8693 14.8094 15.8693 15.4891C15.8693 16.1651 16.3296 16.5342 16.6672 16.8141L17.775 17.6743C19.1274 18.8139 20.3567 19.8611 20.3567 21.9886C20.3567 24.8838 17.5577 27.8088 12.2731 27.8088ZM25.5357 15.6237V18.7231H24.0155V15.6237H20.9398V14.0859H24.0155V11.007H25.5357V14.0859H28.6273V15.6237H25.5357Z" fill="white"/>
</svg>
