<svg width="33" height="32" viewBox="0 0 33 32" fill="none" xmlns="http://www.w3.org/2000/svg">
<path fill-rule="evenodd" clip-rule="evenodd" d="M21.3339 15.9499C21.3339 18.4833 19.1554 20.5372 16.4676 20.5372C13.7802 20.5372 11.6 18.4829 11.6 15.9499C11.6 13.4144 13.7802 11.3606 16.4676 11.3606C19.1554 11.3606 21.3339 13.4144 21.3339 15.9499Z" fill="white"/>
<path fill-rule="evenodd" clip-rule="evenodd" d="M23.9998 16.2056C23.9998 20.1279 20.6269 23.3075 16.4671 23.3075C12.3061 23.3075 8.93314 20.1279 8.93314 16.2056C8.93314 15.5022 9.04333 14.8229 9.2452 14.1816H7.01917V24.1435C7.01917 24.6583 7.45319 25.0802 7.98183 25.0802H24.8586C25.3876 25.0802 25.8212 24.6583 25.8212 24.1435V14.1816H23.689C23.89 14.8229 23.9998 15.5022 23.9998 16.2056Z" fill="white"/>
<path fill-rule="evenodd" clip-rule="evenodd" d="M21.9811 11.4947H24.7198C25.3212 11.4947 25.8107 11.0167 25.8107 10.4332V7.89157C25.8107 7.3064 25.3212 6.83008 24.7198 6.83008H21.9811C21.3797 6.83008 20.8901 7.3064 20.8901 7.89157V10.4332C20.8901 11.0167 21.3797 11.4947 21.9811 11.4947Z" fill="white"/>
<path fill-rule="evenodd" clip-rule="evenodd" d="M16.4448 0C7.36152 0 0 7.16285 0 16.001C0 24.8372 7.36152 32 16.4448 32C25.526 32 32.8876 24.8372 32.8876 16.001C32.8876 7.16285 25.526 0 16.4448 0ZM25.4507 27.7896H7.43722C5.72511 27.7896 4.32717 26.5587 4.32717 24.7635V7.2361C4.32717 5.44252 5.72511 4.20998 7.43722 4.20998H25.4507C27.1624 4.20998 28.5608 5.44252 28.5608 7.2361V24.7635C28.5604 26.5587 27.1624 27.7896 25.4507 27.7896Z" fill="white"/>
</svg>
