<svg xmlns="http://www.w3.org/2000/svg" xmlns:xlink="http://www.w3.org/1999/xlink" width="129" height="135" viewBox="0 0 129 135"><defs><path id="275ga" d="M6418.9 1091.5c0 2.2-.14 4.36-.41 6.48l9.32 3.03a9 9 0 0 1-5.55 17.12l-9.32-3.03a49.65 49.65 0 0 1-7.62 10.48l5.77 7.95a9.01 9.01 0 0 1-2 12.57 8.98 8.98 0 0 1-12.54-1.99l-5.76-7.94a48.99 48.99 0 0 1-12.31 4v9.83a9 9 0 1 1-17.97 0v-9.82a48.99 48.99 0 0 1-12.31-4l-5.76 7.93a8.97 8.97 0 0 1-12.55 2 9.01 9.01 0 0 1-1.99-12.58l5.76-7.95a49.65 49.65 0 0 1-7.6-10.48l-9.33 3.03a9 9 0 0 1-5.55-17.12l9.32-3.03a50.05 50.05 0 0 1 0-12.97l-9.32-3.03a9 9 0 0 1 5.55-17.12l9.32 3.03a49.65 49.65 0 0 1 7.61-10.48l-5.76-7.95a9.01 9.01 0 0 1 1.99-12.57 8.97 8.97 0 0 1 12.55 1.98l5.76 7.94a48.99 48.99 0 0 1 12.31-4V1033a9 9 0 1 1 17.97 0v9.81c4.33.8 8.46 2.16 12.31 4l5.76-7.94a8.97 8.97 0 0 1 12.55-1.98 9.01 9.01 0 0 1 1.99 12.57l-5.77 7.95a49.65 49.65 0 0 1 7.62 10.48l9.32-3.03a9 9 0 0 1 5.55 17.12l-9.33 3.03c.28 2.12.42 4.29.42 6.49zm-80.85 0c0 17.4 14.08 31.5 31.44 31.5a31.47 31.47 0 0 0 31.45-31.5c0-17.4-14.08-31.5-31.45-31.5a31.47 31.47 0 0 0-31.44 31.5z"/></defs><g><g transform="translate(-6305 -1024)"><use fill="#969696" xlink:href="#275ga"/></g></g></svg>