<svg xmlns="http://www.w3.org/2000/svg" xmlns:xlink="http://www.w3.org/1999/xlink" width="75" height="77" viewBox="0 0 75 77"><defs><path id="7lcea" d="M1782.22 5373.5c0 1.25-.08 2.48-.24 3.7l5.35 1.72a5.13 5.13 0 1 1-3.19 9.77l-5.35-1.73a28.33 28.33 0 0 1-4.36 5.98l3.3 4.53a5.12 5.12 0 0 1-1.14 7.17 5.17 5.17 0 0 1-7.2-1.13l-3.3-4.53a28.21 28.21 0 0 1-7.06 2.28v5.6a5.14 5.14 0 0 1-10.31 0v-5.6a28.21 28.21 0 0 1-7.06-2.28l-3.3 4.53a5.17 5.17 0 0 1-7.2 1.13 5.12 5.12 0 0 1-1.15-7.17l3.31-4.53a28.33 28.33 0 0 1-4.37-5.98l-5.34 1.73a5.13 5.13 0 1 1-3.19-9.77l5.35-1.73a28.38 28.38 0 0 1 0-7.4l-5.35-1.72a5.13 5.13 0 1 1 3.19-9.77l5.34 1.73c1.2-2.18 2.67-4.2 4.37-5.98l-3.3-4.53a5.12 5.12 0 0 1 1.13-7.17 5.17 5.17 0 0 1 7.2 1.13l3.3 4.53a28.22 28.22 0 0 1 7.07-2.28v-5.6a5.14 5.14 0 0 1 10.3 0v5.6c2.49.45 4.86 1.23 7.07 2.28l3.3-4.53a5.17 5.17 0 0 1 7.2-1.13 5.12 5.12 0 0 1 1.14 7.17l-3.3 4.53c1.7 1.79 3.17 3.8 4.36 5.98l5.35-1.73a5.13 5.13 0 1 1 3.19 9.76l-5.35 1.74c.16 1.2.24 2.44.24 3.7zm-46.38 0a18 18 0 0 0 18.03 17.96 18 18 0 0 0 18.04-17.97 18 18 0 0 0-18.04-17.96 18 18 0 0 0-18.03 17.96z"/></defs><g><g transform="translate(-1716 -5335)"><use fill="#bdbfbf" xlink:href="#7lcea"/></g></g></svg>