<svg xmlns="http://www.w3.org/2000/svg" xmlns:xlink="http://www.w3.org/1999/xlink" width="60" height="66" viewBox="0 0 60 66"><defs><path id="o9uma" d="M646.34 10336s12.16-4.9 22.5-4.9c11.14 0 22.5 4.9 22.5 4.9l7.5 19.55s-15.06 2.45-30 2.45c-15.06 0-30-2.45-30-2.45zm22.5-44c8.48 0 16.11 6.27 17.5 14.66.17 1 0 3.85 0 4.9 0 4.19-6.78 14.66-17.5 14.66-10.7 0-17.5-10.47-17.5-14.67 0-.92-.12-4 0-4.89 1.26-8.55 8.92-14.66 17.5-14.66z"/></defs><g><g transform="translate(-639 -10292)"><use fill="#c5c5c5" xlink:href="#o9uma"/></g></g></svg>