<svg xmlns="http://www.w3.org/2000/svg" xmlns:xlink="http://www.w3.org/1999/xlink" width="69" height="70" viewBox="0 0 69 70"><defs><path id="is9ra" d="M667.85 10497c18.77 0 34 13.64 34 30.48 0 8.3-3.7 15.82-9.7 21.32-3.61 3.3-24.3 18.2-24.3 18.2v-9.04c-18.78 0-34-13.64-34-30.48s15.22-30.49 34-30.49zm-4.54 31.6a4.52 4.52 0 1 0 9.05 0 4.52 4.52 0 0 0-9.05 0zm-18.13 0a4.52 4.52 0 1 0 9.05 0 4.52 4.52 0 0 0-9.05 0zm36.27 0a4.52 4.52 0 1 0 9.04 0 4.52 4.52 0 0 0-9.04 0z"/></defs><g><g transform="translate(-633 -10497)"><use fill="#c5c5c5" xlink:href="#is9ra"/></g></g></svg>