<svg xmlns="http://www.w3.org/2000/svg" xmlns:xlink="http://www.w3.org/1999/xlink" width="155" height="155" viewBox="0 0 155 155"><defs><path id="ufqda" d="M4731.8 2892.95h79.53l-14.91 15h-59.65a14.96 14.96 0 0 0-14.9 15.01v90.02c0 8.3 6.67 15.01 14.9 15.01h89.47c8.23 0 14.91-6.72 14.91-15v-60.02l14.91-15v80.02c0 13.8-11.13 25-24.85 25h-99.4a24.93 24.93 0 0 1-24.86-25v-100.03c0-13.81 11.13-25 24.85-25zm92.46 7.92l23.84 23.83-52.45 52.45-23.84-23.84zm27.47 20.2l-23.84-23.84 7.15-7.15c2.63-2.63 6.77-2.77 9.24-.3l14.9 14.9c2.46 2.47 2.33 6.6-.3 9.23zm-83.23 35.56l23.84 23.84-33.38 9.54z"/></defs><g><g transform="translate(-4706 -2888)"><use fill="#cbcbcb" xlink:href="#ufqda"/></g></g></svg>